<?xml version="1.0" encoding="UTF-8"?>
<svg version="1.1" xmlns="http://www.w3.org/2000/svg" width="500" height="500">
<path d="M0 0 C5.90491402 4.42240369 9.46804501 11.59057944 10.8984375 18.75 C10.99231676 20.86479468 11.02933081 22.98233883 11.03265858 25.0992136 C11.03711642 26.41363424 11.04157426 27.72805488 11.04616719 29.08230644 C11.0460779 30.54466284 11.04588805 32.00701924 11.04560852 33.46937561 C11.0489079 35.02003889 11.05263362 36.5707013 11.05675 38.12136263 C11.06676979 42.38948311 11.07048676 46.65758952 11.07313931 50.9257201 C11.07704245 55.52645457 11.08662081 60.12717791 11.09535217 64.72790527 C11.11511674 75.84244065 11.12518297 86.95697693 11.13407996 98.07152548 C11.13846304 103.3056182 11.14382982 108.53970989 11.14906883 113.7738018 C11.16608142 131.17342576 11.18057544 148.57304909 11.18781757 165.97268009 C11.18972747 170.48821577 11.1916478 175.00375145 11.19360352 179.51928711 C11.19408726 180.64160146 11.194571 181.76391581 11.1950694 182.92023968 C11.20336912 201.09969133 11.22870495 219.27907718 11.26118419 237.45850009 C11.29425835 256.12309599 11.31226668 274.78765844 11.31546181 293.4522838 C11.31762662 303.93168654 11.32637101 314.41099333 11.35192299 324.89036751 C11.37363486 333.81545993 11.381678 342.74043309 11.37195621 351.66554893 C11.36741288 356.21780672 11.36929964 360.76981845 11.38871765 365.32204247 C11.40635986 369.49406879 11.40534313 373.66566975 11.38982036 377.83770066 C11.38744588 379.34248266 11.39175954 380.84729421 11.40364901 382.35203112 C11.47592377 392.10785281 10.9784413 401.39060686 4.85546875 409.43359375 C-6.53199789 418.7468406 -17.47312853 420.84558946 -32.1015625 419.75 C-41.73862416 417.8761269 -49.33377923 414.50930518 -55.4765625 406.75 C-58.31412623 401.51142081 -59.3515337 397.06371109 -59.35603809 391.11786938 C-59.36084781 390.15168889 -59.36084781 390.15168889 -59.36575469 389.16598961 C-59.37404631 387.01081152 -59.36813346 384.85591194 -59.36225891 382.70072937 C-59.36527999 381.13866408 -59.36916925 379.57660026 -59.37385148 378.01453906 C-59.38414602 373.72424872 -59.38194594 369.43404182 -59.37767088 365.14374459 C-59.37520628 360.51581361 -59.38421456 355.88790285 -59.39170837 351.25997925 C-59.40446515 342.19386788 -59.40624781 333.12778612 -59.40390811 324.06166729 C-59.40212575 316.69250905 -59.40387283 309.32335981 -59.40813255 301.95420265 C-59.40872774 300.90575219 -59.40932293 299.85730172 -59.40993616 298.77708003 C-59.4111479 296.64719782 -59.41236203 294.5173156 -59.41357853 292.38743339 C-59.42445801 272.40769646 -59.42228975 252.42797641 -59.41619369 232.44823853 C-59.41102513 214.17057523 -59.42227763 195.89296523 -59.44129191 177.61531248 C-59.46066493 158.84895808 -59.46892718 140.08262891 -59.46516865 121.31626445 C-59.46325567 110.7799697 -59.46575355 100.2437203 -59.47988319 89.7074337 C-59.49179119 80.73695915 -59.49320845 71.76655788 -59.48109303 62.79608234 C-59.47520005 58.21980087 -59.47411648 53.64365348 -59.48609543 49.06738091 C-59.49693966 44.87585552 -59.49386826 40.68457639 -59.47983374 36.49306259 C-59.47718277 34.97896006 -59.47956593 33.46483831 -59.48756961 31.95075461 C-59.54614402 20.04073929 -58.42587742 10.74925937 -50.1015625 1.75 C-37.30378199 -9.01176998 -13.84272192 -8.23358924 0 0 Z " fill="#DEEDF7" transform="translate(250.1015625,47.25)"/>
<path d="M0 0 C18.87109957 -0.04667061 37.74218748 -0.08196456 56.61333275 -0.10362434 C65.37505393 -0.11394758 74.1367393 -0.12802784 82.8984375 -0.15087891 C90.53297341 -0.17078081 98.16748339 -0.18370881 105.80204451 -0.18817699 C109.84643933 -0.19078981 113.89075997 -0.19695267 117.93513107 -0.21146011 C121.73864024 -0.22499356 125.54204438 -0.22923129 129.34557533 -0.22621536 C130.74444079 -0.22676743 132.14330961 -0.23077008 133.54215431 -0.23841095 C135.4463207 -0.24830538 137.35054294 -0.24479038 139.25473022 -0.24050903 C140.85588464 -0.24327441 140.85588464 -0.24327441 142.4893856 -0.24609566 C145 0 145 0 147 2 C147.5597592 8.04797301 146.53780888 11.94564701 143.5625 17.25 C142.82497184 18.63044142 142.09212063 20.01338895 141.36328125 21.3984375 C140.97736816 22.1315918 140.59145508 22.86474609 140.19384766 23.62011719 C137.59483365 28.80113734 135.37437873 34.17489866 133.14672852 39.52441406 C132.79408936 40.3387793 132.4414502 41.15314453 132.078125 41.9921875 C131.77293945 42.71776855 131.46775391 43.44334961 131.15332031 44.19091797 C129.68239975 46.4981833 128.53083155 46.98666606 126 48 C123.56122398 48.24888897 123.56122398 48.24888897 120.78695679 48.24723816 C119.73257919 48.25143265 118.6782016 48.25562714 117.59187317 48.25994873 C115.86489449 48.25151947 115.86489449 48.25151947 114.10302734 48.24291992 C112.27817558 48.24576744 112.27817558 48.24576744 110.41645813 48.24867249 C107.08392985 48.25174195 103.75164971 48.2458735 100.41915083 48.23571944 C96.93272525 48.22693199 93.44630378 48.2286965 89.95986938 48.2290802 C84.10733801 48.22814406 78.25485854 48.21946566 72.40234375 48.20581055 C65.63128301 48.19007089 58.86027904 48.18481298 52.08920133 48.1855461 C45.57837661 48.18615589 39.06757041 48.1810559 32.55675125 48.17275429 C29.78406251 48.1692195 27.01138031 48.16739077 24.23868942 48.16686058 C20.37183363 48.16567194 16.50502531 48.15596981 12.63818359 48.14526367 C11.48281601 48.14571686 10.32744843 48.14617004 9.1370697 48.14663696 C8.08833176 48.14237198 7.03959381 48.13810699 5.95907593 48.13371277 C5.0443218 48.13203692 4.12956768 48.13036108 3.18709373 48.12863445 C1 48 1 48 -1 47 C-2.32133094 43.03600719 -2.16253803 39.23072681 -2.16796875 35.09765625 C-2.17129715 34.22354599 -2.17462555 33.34943573 -2.17805481 32.44883728 C-2.18311649 30.60041836 -2.18546337 28.7519903 -2.18530273 26.90356445 C-2.18748892 24.0768325 -2.2056517 21.25049102 -2.22460938 18.42382812 C-2.22754351 16.6276055 -2.22952817 14.83138102 -2.23046875 13.03515625 C-2.23765427 12.19026138 -2.24483978 11.34536652 -2.25224304 10.47486877 C-2.24916641 9.6840239 -2.24608978 8.89317902 -2.24291992 8.07836914 C-2.24434494 7.3857045 -2.24576996 6.69303986 -2.24723816 5.97938538 C-1.95695106 3.65535077 -1.08135229 2.06077263 0 0 Z " fill="#05ACF8" transform="translate(291,255)"/>
<path d="M0 0 C0.89728317 -0.00281982 1.79456635 -0.00563965 2.71903992 -0.00854492 C3.70609421 -0.00652069 4.6931485 -0.00449646 5.71011353 -0.00241089 C6.74761246 -0.00416321 7.78511139 -0.00591553 8.85404968 -0.00772095 C12.297787 -0.01213687 15.74147331 -0.00920194 19.18521118 -0.00582886 C21.57173675 -0.00650207 23.95826226 -0.00747225 26.3447876 -0.00872803 C31.35345104 -0.01020473 36.36209668 -0.00805169 41.37075806 -0.00338745 C47.79590971 0.00230365 54.22101955 -0.00096543 60.64616966 -0.00695992 C65.57717199 -0.01057151 70.50816439 -0.00942407 75.43916702 -0.00683212 C77.80828481 -0.00616419 80.17740349 -0.00698661 82.54652023 -0.00931168 C85.85758607 -0.01184729 89.168584 -0.00798439 92.47964478 -0.00241089 C93.4626506 -0.00443512 94.44565643 -0.00645935 95.45845032 -0.00854492 C96.81283455 -0.00431519 96.81283455 -0.00431519 98.19458008 0 C98.97735006 0.00037703 99.76012005 0.00075405 100.56661034 0.0011425 C102.76899031 0.12959165 104.63875122 0.40376005 106.72427368 1.12698364 C108.44791227 4.57426082 108.20400442 7.67051851 107.00552368 11.30911255 C105.96754797 13.88050904 104.86215516 16.41070451 103.72427368 18.93948364 C103.11785034 20.31596069 103.11785034 20.31596069 102.49917603 21.72024536 C101.25479316 24.5289675 99.99223767 27.32883793 98.72427368 30.12698364 C98.34045532 30.98114868 97.95663696 31.83531372 97.56118774 32.71536255 C96.50124073 35.06598383 95.42908332 37.41042877 94.34927368 39.75198364 C94.02829712 40.45557007 93.70732056 41.15915649 93.37661743 41.88406372 C90.391519 48.23448278 90.391519 48.23448278 87.72427368 50.12698364 C85.124375 50.44180837 82.75743422 50.57473851 80.15444946 50.57522583 C79.00005623 50.59292274 79.00005623 50.59292274 77.82234192 50.61097717 C75.27136982 50.64632958 72.72076042 50.6603727 70.16958618 50.67385864 C68.3889644 50.69325866 66.60835476 50.71380397 64.82775879 50.73544312 C61.08690612 50.77785597 57.34614194 50.8104725 53.60513306 50.83547974 C48.84314672 50.86749767 44.08156576 50.91710045 39.31981087 50.97340012 C35.63578485 51.01604906 31.95171862 51.05234392 28.26760483 51.08649445 C26.51437118 51.1028795 24.76114792 51.12042451 23.00793839 51.13921356 C0.52786395 51.36552496 0.52786395 51.36552496 -6.27572632 50.12698364 C-7.96841703 46.74160223 -7.41722477 42.8970653 -7.40853882 39.17385864 C-7.40949554 38.28088074 -7.41045227 37.38790283 -7.41143799 36.46786499 C-7.41211939 34.57477752 -7.41026791 32.68168773 -7.40609741 30.78860474 C-7.40077366 27.90264564 -7.40603074 25.01684397 -7.41244507 22.13088989 C-7.41178379 20.2910458 -7.41050159 18.45120181 -7.40853882 16.61135864 C-7.41056305 15.75177551 -7.41258728 14.89219238 -7.41467285 14.00656128 C-7.39771808 9.62854619 -7.34309771 5.40153986 -6.27572632 1.12698364 C-3.94463401 -0.03856251 -2.59610345 0.00125163 0 0 Z " fill="#49D8F9" transform="translate(296.2757263183594,195.87301635742188)"/>
<path d="M0 0 C12.7430367 -0.06939532 25.48602872 -0.12275793 38.22921562 -0.15543652 C44.14587942 -0.17111761 50.06241431 -0.19240044 55.97900391 -0.22631836 C61.68481851 -0.25882467 67.39050882 -0.27683458 73.09640884 -0.28463173 C75.27740563 -0.29019096 77.45839533 -0.30104619 79.63933945 -0.31719017 C82.68532972 -0.33884837 85.73080107 -0.3419718 88.77685547 -0.34057617 C90.1406282 -0.35675491 90.1406282 -0.35675491 91.5319519 -0.3732605 C94.03903198 -0.36076355 94.03903198 -0.36076355 98 0 C100.11849442 3.17774163 100.27630787 4.19209311 99.62353516 7.83251953 C98.24932629 12.60942881 95.8930085 17.00080438 93.6875 21.4375 C92.95756836 22.93506836 92.95756836 22.93506836 92.21289062 24.46289062 C91.2598165 26.4139347 90.29894484 28.36119274 89.32958984 30.30419922 C88.49223532 32.00197164 87.67672373 33.71086556 86.89306641 35.43408203 C84.48785846 40.64556193 84.48785846 40.64556193 82.35450745 42.19548035 C79.05845506 43.32171969 75.87579642 43.28666555 72.43334961 43.2746582 C71.29853401 43.2823246 71.29853401 43.2823246 70.14079285 43.29014587 C67.64456231 43.30402612 65.14860824 43.30308674 62.65234375 43.30078125 C60.91646726 43.30466819 59.18059172 43.30900286 57.44471741 43.31376648 C53.80906081 43.32122467 50.17350134 43.32093969 46.5378418 43.31567383 C41.87472629 43.30987051 37.21200685 43.32683276 32.54895687 43.3500185 C28.96563893 43.36473363 25.38241697 43.36563075 21.79907417 43.36250877 C20.07944515 43.3630228 18.35981087 43.36827583 16.64021111 43.37832069 C14.2389619 43.39062912 11.83849216 43.3839284 9.43725586 43.37231445 C8.72496826 43.37995819 8.01268066 43.38760193 7.27880859 43.39547729 C4.44035361 43.36506426 2.45988688 43.30444066 0.05744934 41.71405029 C-1.85286786 38.61756176 -1.38194993 34.99355983 -1.328125 31.46484375 C-1.32625183 30.63038223 -1.32437866 29.79592072 -1.32244873 28.93617249 C-1.31572972 27.17347209 -1.30181814 25.41078656 -1.28125 23.64819336 C-1.25007907 20.94435838 -1.24027731 18.24110626 -1.234375 15.53710938 C-1.22520554 13.8255137 -1.21482995 12.11392397 -1.203125 10.40234375 C-1.19887512 9.59087387 -1.19462524 8.77940399 -1.19024658 7.94334412 C-1.11720782 2.23441564 -1.11720782 2.23441564 0 0 Z " fill="#0C72E1" transform="translate(290,311)"/>
<path d="M0 0 C0.78288391 -0.00335861 1.56576782 -0.00671722 2.37237549 -0.01017761 C4.94545095 -0.01963252 7.51846101 -0.02162764 10.09155273 -0.02270508 C11.88703945 -0.0259203 13.68252591 -0.02928457 15.47801208 -0.03279114 C19.23453377 -0.03876789 22.99103249 -0.04063242 26.74755859 -0.04003906 C31.55829865 -0.03993726 36.36889173 -0.05361499 41.1795969 -0.07081127 C44.88478776 -0.08193159 48.58994301 -0.0839583 52.29514885 -0.08342934 C54.06894375 -0.08460842 55.8427396 -0.08902617 57.61651802 -0.0967617 C60.09601287 -0.10656684 62.57518741 -0.10368206 65.0546875 -0.09765625 C65.78469467 -0.10327576 66.51470184 -0.10889526 67.26683044 -0.11468506 C71.56658049 -0.08815283 73.80987705 0.4841559 77.96264648 2.14526367 C77.96264648 6.43526367 77.96264648 10.72526367 77.96264648 15.14526367 C75.62939554 16.31188914 74.27155944 16.27202085 71.67285156 16.2746582 C70.77650497 16.27776505 69.88015839 16.28087189 68.95664978 16.28407288 C67.97507401 16.28209396 66.99349823 16.28011505 65.98217773 16.27807617 C64.95737808 16.27944077 63.93257843 16.28080536 62.87672424 16.2822113 C59.50949963 16.28425037 56.14236224 16.27789336 52.77514648 16.27026367 C51.63515198 16.2690451 50.49515747 16.26782654 49.32061768 16.26657104 C33.65573629 16.24689673 17.99782776 16.09669879 2.33764648 15.70776367 C1.49932281 15.68820618 0.66099915 15.66864868 -0.20272827 15.64849854 C-2.53583704 15.59227208 -4.86859525 15.52869339 -7.20141602 15.46166992 C-9.15748779 15.40668335 -9.15748779 15.40668335 -11.15307617 15.35058594 C-14.03735352 15.14526367 -14.03735352 15.14526367 -15.03735352 14.14526367 C-15.13614917 12.33497867 -15.16706866 10.5207364 -15.16235352 8.70776367 C-15.16493164 7.71905273 -15.16750977 6.7303418 -15.17016602 5.71166992 C-15.03735352 3.14526367 -15.03735352 3.14526367 -14.03735352 1.14526367 C-9.39086245 0.02741734 -4.75295747 -0.00295882 0 0 Z " fill="#BAC1CA" transform="translate(97.037353515625,156.854736328125)"/>
<path d="M0 0 C30.03 0 60.06 0 91 0 C93.29813665 8.04347826 93.29813665 8.04347826 92 13 C90.155281 14.844719 87.55483588 14.1200219 85.1006012 14.12442017 C84.25327927 14.12082489 83.40595734 14.11722961 82.53295898 14.11352539 C81.64523804 14.11367142 80.75751709 14.11381744 79.84289551 14.1139679 C76.89393716 14.11326843 73.94504113 14.10547448 70.99609375 14.09765625 C68.95728083 14.09579219 66.91846746 14.09436823 64.87965393 14.09336853 C59.50215426 14.08954241 54.12468142 14.07971132 48.74719238 14.06866455 C43.26440799 14.05845245 37.78161928 14.05387134 32.29882812 14.04882812 C21.53254027 14.03808914 10.76627236 14.02101159 0 14 C-2.15580306 9.68839387 -1.12268117 4.49072469 0 0 Z " fill="#B7C4D4" transform="translate(83,364)"/>
<path d="M0 0 C0.99065712 -0.00262848 0.99065712 -0.00262848 2.00132751 -0.00531006 C4.19215499 -0.0097226 6.38290211 -0.00679067 8.57373047 -0.00341797 C10.09870418 -0.00409166 11.62367778 -0.00506224 13.14865112 -0.00631714 C16.35155251 -0.0077937 19.55442606 -0.00564269 22.75732422 -0.00097656 C26.84591989 0.00469178 30.93444949 0.00145994 35.02304268 -0.00454903 C38.17677295 -0.00818055 41.33048784 -0.00700369 44.4842186 -0.00442123 C45.9903756 -0.00375761 47.49653403 -0.0045605 49.00268936 -0.00690079 C64.15983721 -0.02526668 64.15983721 -0.02526668 70.56591797 1.12939453 C71.56591797 2.12939453 71.56591797 2.12939453 71.66357422 5.07080078 C71.65197266 6.26576172 71.64037109 7.46072266 71.62841797 8.69189453 C71.61939453 9.88943359 71.61037109 11.08697266 71.60107422 12.32080078 C71.58947266 13.24763672 71.57787109 14.17447266 71.56591797 15.12939453 C52.98073729 15.93576748 34.41790318 16.238415 15.81591797 16.25439453 C14.26720001 16.25814087 14.26720001 16.25814087 12.68719482 16.26196289 C9.7352764 16.2678335 6.78346245 16.26637618 3.83154297 16.26220703 C2.49287674 16.26518295 2.49287674 16.26518295 1.12716675 16.26821899 C0.30548004 16.26510712 -0.51620667 16.26199524 -1.36279297 16.25878906 C-2.07981384 16.25799347 -2.79683472 16.25719788 -3.5355835 16.25637817 C-5.43408203 16.12939453 -5.43408203 16.12939453 -8.43408203 15.12939453 C-8.43408203 10.50939453 -8.43408203 5.88939453 -8.43408203 1.12939453 C-5.58841324 -0.29343986 -3.18153848 0.00211426 0 0 Z " fill="#B2C0C9" transform="translate(284.43408203125,156.87060546875)"/>
<path d="M0 0 C0.69771011 0.00359528 1.39542023 0.00719055 2.11427307 0.01089478 C3.2117688 0.01067574 3.2117688 0.01067574 4.33143616 0.01045227 C6.76094989 0.0111515 9.19038789 0.01894432 11.61988831 0.02676392 C13.29997719 0.02862806 14.98006662 0.03005198 16.66015625 0.03105164 C21.09071849 0.03487709 25.52124815 0.04470761 29.95179749 0.05575562 C34.46941182 0.06596914 38.98703139 0.07054913 43.50465393 0.07559204 C52.37511098 0.08632986 61.24554381 0.10340661 70.11598206 0.12442017 C71.29588445 3.66412734 71.31167474 6.40625916 71.11598206 10.12442017 C70.45598206 11.44442017 69.79598206 12.76442017 69.11598206 14.12442017 C44.36598206 14.12442017 19.61598206 14.12442017 -5.88401794 14.12442017 C-6.9394377 10.95816089 -6.86178335 9.26965081 -6.50901794 5.99942017 C-6.41878357 5.10996704 -6.32854919 4.22051392 -6.23558044 3.30410767 C-5.58460642 -0.73193127 -3.68439842 0.00800841 0 0 Z " fill="#A3B8D0" transform="translate(281.88401794433594,363.8755798339844)"/>
<path d="M0 0 C3.02353449 4.53530174 3.1257241 7.94407368 3.13422108 13.3492136 C3.13867892 14.66363424 3.14313676 15.97805488 3.14772969 17.33230644 C3.1476404 18.79466284 3.14745055 20.25701924 3.14717102 21.71937561 C3.1504704 23.27003889 3.15419612 24.8207013 3.1583125 26.37136263 C3.16833229 30.63948311 3.17204926 34.90758952 3.17470181 39.1757201 C3.17860495 43.77645457 3.18818331 48.37717791 3.19691467 52.97790527 C3.21667924 64.09244065 3.22674547 75.20697693 3.23564246 86.32152548 C3.24002554 91.5556182 3.24539232 96.78970989 3.25063133 102.0238018 C3.26764392 119.42342576 3.28213794 136.82304909 3.28938007 154.22268009 C3.29128997 158.73821577 3.2932103 163.25375145 3.29516602 167.76928711 C3.29564976 168.89160146 3.2961335 170.01391581 3.2966319 171.17023968 C3.30493162 189.34969133 3.33026745 207.52907718 3.36274669 225.70850009 C3.39582085 244.37309599 3.41382918 263.03765844 3.41702431 281.7022838 C3.41918912 292.18168654 3.42793351 302.66099333 3.45348549 313.14036751 C3.47519736 322.06545993 3.4832405 330.99043309 3.47351871 339.91554893 C3.46897538 344.46780672 3.47086214 349.01981845 3.49028015 353.57204247 C3.50792236 357.74406879 3.50690563 361.91566975 3.49138286 366.08770066 C3.48900838 367.59248266 3.49332204 369.09729421 3.50521151 370.60203112 C3.57748627 380.35785281 3.0800038 389.64060686 -3.04296875 397.68359375 C-14.41015213 406.98025192 -25.38929838 409.13451408 -40 408 C-52.36764038 405.35633507 -52.36764038 405.35633507 -56 401 C-50.43548387 400.62903226 -50.43548387 400.62903226 -48.3125 402.4375 C-47.879375 402.953125 -47.44625 403.46875 -47 404 C-42.50644066 405.49785311 -38.08255951 405.22532079 -33.375 405.25 C-32.41464844 405.270625 -31.45429688 405.29125 -30.46484375 405.3125 C-24.45199534 405.34513418 -18.31323546 405.12647069 -13 402 C-11.73412842 399.9782248 -11.73412842 399.9782248 -11 398 C-10.34 398 -9.68 398 -9 398 C-9 397.34 -9 396.68 -9 396 C-8.01 395.34 -7.02 394.68 -6 394 C0.47931542 385.70647626 -0.7429204 373.71525163 -0.83984375 363.80859375 C-0.84614117 362.33578392 -0.85137216 360.86296919 -0.85560608 359.39015198 C-0.86883338 355.52161749 -0.89317721 351.6532445 -0.92095947 347.78479004 C-0.96418256 341.65093953 -0.99444825 335.51706278 -1.0170002 329.38310432 C-1.02685583 327.28734704 -1.04394814 325.19175414 -1.06199646 323.09605408 C-1.10479183 315.9835639 -0.97510621 308.90188188 -0.64285988 301.79638714 C0.06305975 286.52705408 0.1354019 271.28271502 0.11352539 255.99975586 C0.11268091 253.18822198 0.11335945 250.37668892 0.1139679 247.56515503 C0.11448655 241.56873559 0.11140964 235.57232722 0.10573006 229.57591057 C0.09752427 220.9066193 0.09499065 212.23733326 0.09374207 203.56803853 C0.09156563 189.49498166 0.08494416 175.42193065 0.07543945 161.34887695 C0.0662286 147.6965335 0.05916585 134.04419165 0.05493164 120.3918457 C0.05466892 119.54712005 0.05440619 118.7023944 0.05413551 117.832071 C0.05283026 113.59337656 0.0515666 109.35468211 0.05032361 105.11598766 C0.03999494 70.07732093 0.02241547 35.03866101 0 0 Z " fill="#525B61" transform="translate(258,59)"/>
<path d="M0 0 C0.89728317 -0.00281982 1.79456635 -0.00563965 2.71903992 -0.00854492 C3.70609421 -0.00652069 4.6931485 -0.00449646 5.71011353 -0.00241089 C6.74761246 -0.00416321 7.78511139 -0.00591553 8.85404968 -0.00772095 C12.297787 -0.01213687 15.74147331 -0.00920194 19.18521118 -0.00582886 C21.57173675 -0.00650207 23.95826226 -0.00747225 26.3447876 -0.00872803 C31.35345104 -0.01020473 36.36209668 -0.00805169 41.37075806 -0.00338745 C47.79590971 0.00230365 54.22101955 -0.00096543 60.64616966 -0.00695992 C65.57717199 -0.01057151 70.50816439 -0.00942407 75.43916702 -0.00683212 C77.80828481 -0.00616419 80.17740349 -0.00698661 82.54652023 -0.00931168 C85.85758607 -0.01184729 89.168584 -0.00798439 92.47964478 -0.00241089 C93.4626506 -0.00443512 94.44565643 -0.00645935 95.45845032 -0.00854492 C96.81283455 -0.00431519 96.81283455 -0.00431519 98.19458008 0 C98.97735006 0.00037703 99.76012005 0.00075405 100.56661034 0.0011425 C102.76899031 0.12959165 104.63875122 0.40376005 106.72427368 1.12698364 C108.44791227 4.57426082 108.20400442 7.67051851 107.00552368 11.30911255 C105.96754797 13.88050904 104.86215516 16.41070451 103.72427368 18.93948364 C103.11785034 20.31596069 103.11785034 20.31596069 102.49917603 21.72024536 C101.25479316 24.5289675 99.99223767 27.32883793 98.72427368 30.12698364 C98.34045532 30.98114868 97.95663696 31.83531372 97.56118774 32.71536255 C96.50124073 35.06598383 95.42908332 37.41042877 94.34927368 39.75198364 C94.02829712 40.45557007 93.70732056 41.15915649 93.37661743 41.88406372 C90.391519 48.23448278 90.391519 48.23448278 87.72427368 50.12698364 C85.124375 50.44180837 82.75743422 50.57473851 80.15444946 50.57522583 C79.00005623 50.59292274 79.00005623 50.59292274 77.82234192 50.61097717 C75.27136982 50.64632958 72.72076042 50.6603727 70.16958618 50.67385864 C68.3889644 50.69325866 66.60835476 50.71380397 64.82775879 50.73544312 C61.08690612 50.77785597 57.34614194 50.8104725 53.60513306 50.83547974 C48.84314672 50.86749767 44.08156576 50.91710045 39.31981087 50.97340012 C35.63578485 51.01604906 31.95171862 51.05234392 28.26760483 51.08649445 C26.51437118 51.1028795 24.76114792 51.12042451 23.00793839 51.13921356 C0.52786395 51.36552496 0.52786395 51.36552496 -6.27572632 50.12698364 C-7.96841703 46.74160223 -7.41722477 42.8970653 -7.40853882 39.17385864 C-7.40949554 38.28088074 -7.41045227 37.38790283 -7.41143799 36.46786499 C-7.41211939 34.57477752 -7.41026791 32.68168773 -7.40609741 30.78860474 C-7.40077366 27.90264564 -7.40603074 25.01684397 -7.41244507 22.13088989 C-7.41178379 20.2910458 -7.41050159 18.45120181 -7.40853882 16.61135864 C-7.41056305 15.75177551 -7.41258728 14.89219238 -7.41467285 14.00656128 C-7.39771808 9.62854619 -7.34309771 5.40153986 -6.27572632 1.12698364 C-3.94463401 -0.03856251 -2.59610345 0.00125163 0 0 Z M15.72427368 3.12698364 C13.47520216 3.19489039 11.22425763 3.21198348 8.97427368 3.18948364 C7.80380493 3.18046021 6.63333618 3.17143677 5.42739868 3.16213989 C4.53536743 3.15053833 3.64333618 3.13893677 2.72427368 3.12698364 C1.23927368 6.59198364 1.23927368 6.59198364 -0.27572632 10.12698364 C0.71427368 10.62198364 0.71427368 10.62198364 1.72427368 11.12698364 C1.06427368 12.77698364 0.40427368 14.42698364 -0.27572632 16.12698364 C0.05427368 16.45698364 0.38427368 16.78698364 0.72427368 17.12698364 C0.81202973 19.27257191 0.83122587 21.42102785 0.82192993 23.56838989 C0.81870728 24.87356567 0.81548462 26.17874146 0.81216431 27.52346802 C0.80380769 28.91214054 0.79534273 30.30081241 0.78677368 31.68948364 C0.78176034 33.0820602 0.77719715 34.47463846 0.77310181 35.86721802 C0.76126802 39.28718235 0.74478248 42.70706208 0.72427368 46.12698364 C4.19348677 46.89887477 7.4828596 47.28863836 11.03286743 47.40823364 C12.02737915 47.44561646 13.02189087 47.48299927 14.04653931 47.52151489 C15.07456665 47.55631958 16.10259399 47.59112427 17.16177368 47.62698364 C19.20226284 47.69632689 21.24263748 47.76914249 23.28286743 47.84573364 C24.18319702 47.87602661 25.08352661 47.90631958 26.01113892 47.93753052 C28.72427368 48.12698364 28.72427368 48.12698364 31.32998657 48.61868286 C39.79835745 49.88683708 48.5172399 49.59654109 57.06411743 49.69680786 C59.50455707 49.73359677 61.94479233 49.7882931 64.38442993 49.86087036 C67.91510322 49.96418159 71.44232328 50.00869801 74.97427368 50.04104614 C76.06192017 50.08436066 77.14956665 50.12767517 78.27017212 50.17230225 C84.06268918 50.22528302 84.06268918 50.22528302 88.73071289 47.17454529 C90.28798739 44.88095188 91.55381623 42.63727238 92.72427368 40.12698364 C93.48610962 38.5317688 93.48610962 38.5317688 94.26333618 36.90432739 C94.62169556 35.96717896 94.98005493 35.03003052 95.34927368 34.06448364 C96.70234712 30.64073232 98.0713353 27.32181411 99.78677368 24.06448364 C103.51189222 16.76629221 105.83806209 10.36877487 105.72427368 2.12698364 C94.58035345 2.10382447 83.43643893 2.08605027 72.29249954 2.07517147 C67.11805624 2.06995049 61.94362939 2.06286702 56.76919556 2.05154419 C51.77660714 2.04068751 46.78403455 2.03470088 41.79143524 2.0321064 C39.88563538 2.03025718 37.9798364 2.02664619 36.07404327 2.02125359 C33.40697855 2.01400631 30.73997946 2.01299427 28.07290649 2.01345825 C27.28312408 2.00986298 26.49334167 2.0062677 25.67962646 2.00256348 C22.17006641 2.00918035 19.10743185 2.26988208 15.72427368 3.12698364 Z " fill="#2588C9" transform="translate(296.2757263183594,195.87301635742188)"/>
<path d="M0 0 C12.7430367 -0.06939532 25.48602872 -0.12275793 38.22921562 -0.15543652 C44.14587942 -0.17111761 50.06241431 -0.19240044 55.97900391 -0.22631836 C61.68481851 -0.25882467 67.39050882 -0.27683458 73.09640884 -0.28463173 C75.27740563 -0.29019096 77.45839533 -0.30104619 79.63933945 -0.31719017 C82.68532972 -0.33884837 85.73080107 -0.3419718 88.77685547 -0.34057617 C90.1406282 -0.35675491 90.1406282 -0.35675491 91.5319519 -0.3732605 C94.03903198 -0.36076355 94.03903198 -0.36076355 98 0 C100 3 100 3 99.84765625 6.19140625 C98.8933397 10.47923405 97.37756024 14.02280419 95.4375 17.9375 C95.10814453 18.62134766 94.77878906 19.30519531 94.43945312 20.00976562 C93.63482961 21.67731871 92.8186103 23.33926839 92 25 C90.87241911 21.61725734 91.18249738 20.23221777 91.9375 16.8125 C92.13214844 15.91144531 92.32679688 15.01039063 92.52734375 14.08203125 C92.76130859 13.05142578 92.76130859 13.05142578 93 12 C93.99 11.67 94.98 11.34 96 11 C96.66 8.03 97.32 5.06 98 2 C71.27 2.33 44.54 2.66 17 3 C16.67 3.66 16.34 4.32 16 5 C15.34 5 14.68 5 14 5 C14 4.34 14 3.68 14 3 C11.69 3.66 9.38 4.32 7 5 C7 16.55 7 28.1 7 40 C20.2323685 40.14542123 20.2323685 40.14542123 33.46484375 40.24414062 C38.86174076 40.2740351 44.2582138 40.30940575 49.65478516 40.37719727 C54.00551753 40.43150921 58.35579532 40.46141868 62.70684052 40.47438622 C64.36709501 40.48362767 66.02732451 40.50167443 67.68738556 40.52865028 C70.01251551 40.56493208 72.33576551 40.56994607 74.66113281 40.56762695 C75.3480571 40.58560333 76.03498138 40.60357971 76.74272156 40.62210083 C78.91896388 40.65234395 78.91896388 40.65234395 82 40 C84.48382089 37.615798 84.48382089 37.615798 86 35 C85.8125 37.3125 85.8125 37.3125 85 40 C80.97010617 43.19879319 77.27883314 43.43079842 72.31982422 43.38818359 C71.18478958 43.39606903 71.18478958 43.39606903 70.02682495 43.40411377 C67.53590001 43.41727406 65.04561847 43.40859185 62.5546875 43.3984375 C60.82024005 43.40045896 59.08579342 43.403371 57.35134888 43.40713501 C53.72161747 43.41155261 50.09210792 43.40514396 46.46240234 43.39111328 C41.80713753 43.37399609 37.15239065 43.38388201 32.4971447 43.40183067 C28.91810184 43.41266202 25.33918218 43.40922562 21.76013565 43.4014473 C20.04330509 43.39944481 18.32646338 43.40190627 16.60964584 43.40888596 C14.21325701 43.41649271 11.81771254 43.40490908 9.42138672 43.38818359 C8.35531189 43.39729263 8.35531189 43.39729263 7.2677002 43.40658569 C4.43361433 43.36988209 2.45591717 43.30219982 0.05844116 41.71305847 C-1.85390379 38.61797975 -1.38194464 34.99321303 -1.328125 31.46484375 C-1.32625183 30.63038223 -1.32437866 29.79592072 -1.32244873 28.93617249 C-1.31572972 27.17347209 -1.30181814 25.41078656 -1.28125 23.64819336 C-1.25007907 20.94435838 -1.24027731 18.24110626 -1.234375 15.53710938 C-1.22520554 13.8255137 -1.21482995 12.11392397 -1.203125 10.40234375 C-1.19887512 9.59087387 -1.19462524 8.77940399 -1.19024658 7.94334412 C-1.11720782 2.23441564 -1.11720782 2.23441564 0 0 Z " fill="#0D3C75" transform="translate(290,311)"/>
<path d="M0 0 C18.87109957 -0.04667061 37.74218748 -0.08196456 56.61333275 -0.10362434 C65.37505393 -0.11394758 74.1367393 -0.12802784 82.8984375 -0.15087891 C90.53297341 -0.17078081 98.16748339 -0.18370881 105.80204451 -0.18817699 C109.84643933 -0.19078981 113.89075997 -0.19695267 117.93513107 -0.21146011 C121.73864024 -0.22499356 125.54204438 -0.22923129 129.34557533 -0.22621536 C130.74444079 -0.22676743 132.14330961 -0.23077008 133.54215431 -0.23841095 C135.4463207 -0.24830538 137.35054294 -0.24479038 139.25473022 -0.24050903 C140.85588464 -0.24327441 140.85588464 -0.24327441 142.4893856 -0.24609566 C145 0 145 0 147 2 C147.61174693 8.34177653 146.42246304 12.19657561 143.375 17.6875 C142.64144191 19.07588008 141.90969742 20.46521977 141.1796875 21.85546875 C140.81327148 22.54431152 140.44685547 23.2331543 140.06933594 23.94287109 C137.51132431 28.86383136 135.2838976 33.94774166 133 39 C131.80483601 35.41450802 132.23010867 34.85754494 133.765625 31.54296875 C134.16136719 30.67736328 134.55710937 29.81175781 134.96484375 28.91992188 C135.38894531 28.01822266 135.81304687 27.11652344 136.25 26.1875 C136.86294922 24.85235352 136.86294922 24.85235352 137.48828125 23.49023438 C139.16373664 19.85648948 140.8363371 16.29139112 142.796875 12.80078125 C144.46047454 9.43609439 144.46047454 9.43609439 144 3 C97.47 2.67 50.94 2.34 3 2 C3.33 3.98 3.66 5.96 4 8 C4.0771366 9.38818483 4.11819089 10.77911514 4.11352539 12.16943359 C4.11341209 13.30993668 4.11341209 13.30993668 4.11329651 14.47348022 C4.10813522 15.27371613 4.10297394 16.07395203 4.09765625 16.8984375 C4.0962413 17.73339752 4.09482635 18.56835754 4.09336853 19.42861938 C4.08780174 22.07745042 4.07525547 24.7261948 4.0625 27.375 C4.0574807 29.17838419 4.05291855 30.98176971 4.04882812 32.78515625 C4.0378432 37.19013721 4.02060163 41.59505394 4 46 C19.96828304 45.96284094 35.93629445 45.90299177 51.90437698 45.81609726 C59.31857926 45.77628051 66.73267498 45.74390151 74.14697266 45.72900391 C80.60896796 45.71600093 87.0707291 45.68907132 93.53259254 45.64538693 C96.95445796 45.62274115 100.37603425 45.60709115 103.79798126 45.60811615 C107.6173088 45.60576053 111.43571354 45.57879206 115.25488281 45.54589844 C116.95852242 45.55344398 116.95852242 45.55344398 118.69657898 45.56114197 C119.73701859 45.54722916 120.77745819 45.53331635 121.84942627 45.51898193 C122.75278339 45.51529476 123.65614052 45.51160759 124.5868721 45.50780869 C127.72572508 44.84728141 128.95411206 43.39880863 131 41 C130.75 43.375 130.75 43.375 130 46 C126.93942043 48.042586 124.41160962 48.24939499 120.78695679 48.24723816 C119.73257919 48.25143265 118.6782016 48.25562714 117.59187317 48.25994873 C115.86489449 48.25151947 115.86489449 48.25151947 114.10302734 48.24291992 C112.27817558 48.24576744 112.27817558 48.24576744 110.41645813 48.24867249 C107.08392985 48.25174195 103.75164971 48.2458735 100.41915083 48.23571944 C96.93272525 48.22693199 93.44630378 48.2286965 89.95986938 48.2290802 C84.10733801 48.22814406 78.25485854 48.21946566 72.40234375 48.20581055 C65.63128301 48.19007089 58.86027904 48.18481298 52.08920133 48.1855461 C45.57837661 48.18615589 39.06757041 48.1810559 32.55675125 48.17275429 C29.78406251 48.1692195 27.01138031 48.16739077 24.23868942 48.16686058 C20.37183363 48.16567194 16.50502531 48.15596981 12.63818359 48.14526367 C11.48281601 48.14571686 10.32744843 48.14617004 9.1370697 48.14663696 C8.08833176 48.14237198 7.03959381 48.13810699 5.95907593 48.13371277 C5.0443218 48.13203692 4.12956768 48.13036108 3.18709373 48.12863445 C1 48 1 48 -1 47 C-2.32133094 43.03600719 -2.16253803 39.23072681 -2.16796875 35.09765625 C-2.17129715 34.22354599 -2.17462555 33.34943573 -2.17805481 32.44883728 C-2.18311649 30.60041836 -2.18546337 28.7519903 -2.18530273 26.90356445 C-2.18748892 24.0768325 -2.2056517 21.25049102 -2.22460938 18.42382812 C-2.22754351 16.6276055 -2.22952817 14.83138102 -2.23046875 13.03515625 C-2.23765427 12.19026138 -2.24483978 11.34536652 -2.25224304 10.47486877 C-2.24916641 9.6840239 -2.24608978 8.89317902 -2.24291992 8.07836914 C-2.24434494 7.3857045 -2.24576996 6.69303986 -2.24723816 5.97938538 C-1.95695106 3.65535077 -1.08135229 2.06077263 0 0 Z " fill="#054C71" transform="translate(291,255)"/>
<path d="M0 0 C3.37805301 2.70104652 6.05016097 5.57379968 7.828125 9.57421875 C7.498125 10.23421875 7.168125 10.89421875 6.828125 11.57421875 C1.828125 5.82421875 1.828125 5.82421875 1.828125 3.57421875 C0.8690625 3.20296875 0.8690625 3.20296875 -0.109375 2.82421875 C-3.44542775 1.46256457 -6.71424239 -0.01976281 -9.98828125 -1.5234375 C-18.72792641 -5.13499033 -31.09839156 -4.67937284 -39.9296875 -1.453125 C-47.50517064 2.01787163 -51.79860429 5.42046749 -55.296875 13.109375 C-56.95921739 17.79213415 -57.29902314 22.12322648 -57.3105402 27.07720661 C-57.31338242 27.71949271 -57.31622464 28.36177881 -57.31915298 29.02352813 C-57.32748288 31.17832152 -57.32876685 33.33306102 -57.33009338 35.48786926 C-57.33465989 37.04723557 -57.33966005 38.60660065 -57.34505695 40.16596431 C-57.3586373 44.45305822 -57.36605613 48.74014419 -57.37248361 53.02725399 C-57.38048799 57.6495773 -57.39418565 62.27188411 -57.40719604 66.89419556 C-57.42895823 74.9033691 -57.44710368 82.91254431 -57.46280098 90.92173195 C-57.48550193 102.50171009 -57.51364446 114.08166997 -57.54312026 125.66163262 C-57.59079339 144.44881147 -57.63405834 163.23599778 -57.67456055 182.02319336 C-57.71391689 200.27450136 -57.75534345 218.52580271 -57.79956055 236.77709961 C-57.80228482 237.90188332 -57.80500909 239.02666704 -57.80781592 240.18553511 C-57.82149542 245.82817688 -57.83521569 251.47081856 -57.84895623 257.11346018 C-57.96291662 303.9336992 -58.06972696 350.75395257 -58.171875 397.57421875 C-58.501875 397.57421875 -58.831875 397.57421875 -59.171875 397.57421875 C-59.2405343 349.44506597 -59.29340033 301.31591837 -59.32507099 253.18672628 C-59.32882313 247.5052621 -59.3327061 241.82379802 -59.33666992 236.14233398 C-59.33745685 235.01125178 -59.33824378 233.88016958 -59.33905456 232.71481215 C-59.35211021 214.39797453 -59.37576494 196.08116515 -59.40333339 177.76434428 C-59.43138315 158.97106635 -59.44805035 140.17780322 -59.45414048 121.38450521 C-59.45825781 109.78706698 -59.47126442 98.18970854 -59.4956244 86.59229486 C-59.51147627 78.64064779 -59.51627659 70.689042 -59.51237913 62.73738027 C-59.51045674 58.14898181 -59.5134139 53.56072285 -59.52949142 48.97234917 C-59.54411048 44.7694937 -59.54481435 40.56687131 -59.53457168 36.36400502 C-59.5333061 34.84568066 -59.53709466 33.32734164 -59.54652455 31.80904604 C-59.61627282 19.88294283 -58.50809316 10.58634649 -50.171875 1.57421875 C-37.6177928 -8.9826231 -13.41364813 -8.80572224 0 0 Z " fill="#232629" transform="translate(250.171875,47.42578125)"/>
<path d="M0 0 C-0.66 0 -1.32 0 -2 0 C-1.67 15.51 -1.34 31.02 -1 47 C14.46946407 47.34917446 14.46946407 47.34917446 29.93945312 47.5859375 C36.25229245 47.65761919 42.56303906 47.74230199 48.87426758 47.90527344 C53.96435822 48.03588607 59.05220548 48.10745126 64.1438427 48.13852692 C66.08380405 48.16066296 68.02364537 48.20389676 69.96264839 48.26876068 C78.60961226 48.70456059 78.60961226 48.70456059 87 47 C90.62733118 43.41855121 92.4494706 39.82414782 94 35 C95 38 95 38 94.07421875 40.19140625 C93.61660156 40.97386719 93.15898437 41.75632813 92.6875 42.5625 C92.23761719 43.34753906 91.78773438 44.13257813 91.32421875 44.94140625 C90 47 90 47 88 49 C85.48030783 49.22261408 83.06665747 49.32181766 80.54370117 49.3347168 C79.77425171 49.34636871 79.00480225 49.35802063 78.21203613 49.37002563 C75.65570255 49.40614178 73.09946567 49.4279336 70.54296875 49.44921875 C68.76092194 49.47048046 66.97888343 49.49244809 65.19685364 49.51509094 C61.45004014 49.56058155 57.70323632 49.59933069 53.95629883 49.63305664 C49.18648426 49.67625527 44.41695808 49.73301726 39.64734936 49.7946043 C35.95903498 49.84117506 32.27067353 49.88179741 28.58226967 49.92057228 C26.82623986 49.93945305 25.07022494 49.95978272 23.31422997 49.98166466 C0.84699036 50.25083642 0.84699036 50.25083642 -6 49 C-7.69269071 45.61461858 -7.14149846 41.77008166 -7.1328125 38.046875 C-7.13376923 37.15389709 -7.13472595 36.26091919 -7.13571167 35.34088135 C-7.13639307 33.44779388 -7.13454159 31.55470409 -7.13037109 29.66162109 C-7.12504734 26.775662 -7.13030442 23.88986032 -7.13671875 21.00390625 C-7.13605747 19.16406216 -7.13477527 17.32421816 -7.1328125 15.484375 C-7.13483673 14.62479187 -7.13686096 13.76520874 -7.13894653 12.87957764 C-7.12199176 8.50156255 -7.06737139 4.27455622 -6 0 C-3.50907189 -1.24546405 -2.58919267 -0.7767578 0 0 Z " fill="#021E2D" transform="translate(296,197)"/>
<path d="M0 0 C18.87109957 -0.04667061 37.74218748 -0.08196456 56.61333275 -0.10362434 C65.37505393 -0.11394758 74.1367393 -0.12802784 82.8984375 -0.15087891 C90.53297341 -0.17078081 98.16748339 -0.18370881 105.80204451 -0.18817699 C109.84643933 -0.19078981 113.89075997 -0.19695267 117.93513107 -0.21146011 C121.73864024 -0.22499356 125.54204438 -0.22923129 129.34557533 -0.22621536 C130.74444079 -0.22676743 132.14330961 -0.23077008 133.54215431 -0.23841095 C135.4463207 -0.24830538 137.35054294 -0.24479038 139.25473022 -0.24050903 C140.85588464 -0.24327441 140.85588464 -0.24327441 142.4893856 -0.24609566 C145 0 145 0 147 2 C147.61174693 8.34177653 146.42246304 12.19657561 143.375 17.6875 C142.64144191 19.07588008 141.90969742 20.46521977 141.1796875 21.85546875 C140.81327148 22.54431152 140.44685547 23.2331543 140.06933594 23.94287109 C137.51132431 28.86383136 135.2838976 33.94774166 133 39 C131.80483601 35.41450802 132.23010867 34.85754494 133.765625 31.54296875 C134.16136719 30.67736328 134.55710937 29.81175781 134.96484375 28.91992188 C135.38894531 28.01822266 135.81304687 27.11652344 136.25 26.1875 C136.86294922 24.85235352 136.86294922 24.85235352 137.48828125 23.49023438 C139.18214619 19.81656267 140.90287578 16.18530279 142.78125 12.6015625 C144.34636699 9.2606397 144.28572273 6.64296486 144 3 C142.95914052 1.73613669 142.95914052 1.73613669 140.65928555 1.87695217 C139.61305051 1.87787396 138.56681547 1.87879576 137.48887634 1.87974548 C135.69459953 1.87768349 135.69459953 1.87768349 133.86407471 1.87557983 C132.52648901 1.87911943 131.18890356 1.88275425 129.85131836 1.88647461 C128.45217389 1.88675648 127.05302927 1.88659875 125.65388489 1.8860321 C121.84413541 1.88574412 118.03441714 1.89164102 114.22467494 1.89860606 C110.24748691 1.90483941 106.27029824 1.90544338 102.29310608 1.90663147 C94.75661461 1.90974484 87.22013757 1.91795831 79.68365246 1.92798096 C71.10580172 1.93914192 62.5279503 1.9446525 53.9500941 1.94967639 C36.30005288 1.96014092 18.65003145 1.97848647 1 2 C0.67 16.52 0.34 31.04 0 46 C0.99 46.33 1.98 46.66 3 47 C2.01 47.495 2.01 47.495 1 48 C-1 47 -1 47 -2 44 C-2.10944933 41.02463379 -2.16405872 38.07340381 -2.16796875 35.09765625 C-2.17129715 34.22354599 -2.17462555 33.34943573 -2.17805481 32.44883728 C-2.18311649 30.60041836 -2.18546337 28.7519903 -2.18530273 26.90356445 C-2.18748892 24.0768325 -2.2056517 21.25049102 -2.22460938 18.42382812 C-2.22754351 16.6276055 -2.22952817 14.83138102 -2.23046875 13.03515625 C-2.23765427 12.19026138 -2.24483978 11.34536652 -2.25224304 10.47486877 C-2.24916641 9.6840239 -2.24608978 8.89317902 -2.24291992 8.07836914 C-2.24434494 7.3857045 -2.24576996 6.69303986 -2.24723816 5.97938538 C-1.95695106 3.65535077 -1.08135229 2.06077263 0 0 Z " fill="#010E18" transform="translate(291,255)"/>
<path d="M0 0 C12.7430367 -0.06939532 25.48602872 -0.12275793 38.22921562 -0.15543652 C44.14587942 -0.17111761 50.06241431 -0.19240044 55.97900391 -0.22631836 C61.68481851 -0.25882467 67.39050882 -0.27683458 73.09640884 -0.28463173 C75.27740563 -0.29019096 77.45839533 -0.30104619 79.63933945 -0.31719017 C82.68532972 -0.33884837 85.73080107 -0.3419718 88.77685547 -0.34057617 C90.1406282 -0.35675491 90.1406282 -0.35675491 91.5319519 -0.3732605 C94.03903198 -0.36076355 94.03903198 -0.36076355 98 0 C100 3 100 3 99.84765625 6.19140625 C98.8933397 10.47923405 97.37756024 14.02280419 95.4375 17.9375 C95.10814453 18.62134766 94.77878906 19.30519531 94.43945312 20.00976562 C93.63482961 21.67731871 92.8186103 23.33926839 92 25 C90.87241911 21.61725734 91.18249738 20.23221777 91.9375 16.8125 C92.13214844 15.91144531 92.32679688 15.01039063 92.52734375 14.08203125 C92.76130859 13.05142578 92.76130859 13.05142578 93 12 C93.99 11.67 94.98 11.34 96 11 C97.52174919 8.32917961 97.52174919 8.32917961 97 2 C65.32 1.67 33.64 1.34 1 1 C1.33 13.87 1.66 26.74 2 40 C4.84476785 41.42238392 7.28872888 41.16424558 10.46923828 41.20532227 C11.13277313 41.21522186 11.79630798 41.22512146 12.47994995 41.23532104 C14.67670097 41.26694916 16.87347363 41.29169854 19.0703125 41.31640625 C20.59203661 41.33697466 22.113755 41.3579711 23.63546753 41.37937927 C27.6434465 41.43461171 31.65147713 41.48401578 35.6595459 41.53222656 C39.74833787 41.58243305 43.83705468 41.63812356 47.92578125 41.69335938 C55.95045732 41.80095528 63.9751962 41.90239704 72 42 C72 42.33 72 42.66 72 43 C62.92498432 43.06946571 53.85005995 43.12279367 44.77483654 43.15543652 C40.56097724 43.17110231 36.34729964 43.19235703 32.13354492 43.22631836 C28.06813581 43.25887957 24.00290164 43.27684613 19.93737221 43.28463173 C18.38518837 43.2901811 16.83301427 43.30101755 15.28090477 43.31719017 C13.10917741 43.33892207 10.93817576 43.3419688 8.76635742 43.34057617 C7.52947678 43.34723801 6.29259613 43.35389984 5.01823425 43.36076355 C2 43 2 43 0.09938049 41.71603394 C-1.87251588 38.63808129 -1.38211449 35.00434817 -1.328125 31.46484375 C-1.32625183 30.63038223 -1.32437866 29.79592072 -1.32244873 28.93617249 C-1.31572972 27.17347209 -1.30181814 25.41078656 -1.28125 23.64819336 C-1.25007907 20.94435838 -1.24027731 18.24110626 -1.234375 15.53710938 C-1.22520554 13.8255137 -1.21482995 12.11392397 -1.203125 10.40234375 C-1.19887512 9.59087387 -1.19462524 8.77940399 -1.19024658 7.94334412 C-1.11720782 2.23441564 -1.11720782 2.23441564 0 0 Z " fill="#010614" transform="translate(290,311)"/>
<path d="M0 0 C0.33 0 0.66 0 1 0 C1.09267889 13.71700117 1.16375462 27.43392786 1.20724869 41.15117836 C1.22812364 47.52065719 1.2564403 53.8899218 1.30175781 60.25927734 C1.34521779 66.40602092 1.3691378 72.55255845 1.37950897 78.69944382 C1.38689998 81.04461282 1.4013328 83.38977055 1.42292023 85.73485184 C1.45195529 89.01960881 1.45595583 92.30351426 1.45410156 95.58837891 C1.47567322 97.04278885 1.47567322 97.04278885 1.49768066 98.52658081 C1.46208428 104.35382689 0.80514557 107.52323801 -3 112 C-12.87987486 121.40505647 -22.88994081 123.37497097 -36.27734375 123.2890625 C-42.50455868 122.8055222 -50.0336642 121.60564927 -54.86328125 117.36328125 C-55.23839844 116.91339844 -55.61351562 116.46351563 -56 116 C-50.43548387 115.62903226 -50.43548387 115.62903226 -48.3125 117.4375 C-47.879375 117.953125 -47.44625 118.46875 -47 119 C-42.50644066 120.49785311 -38.08255951 120.22532079 -33.375 120.25 C-32.41464844 120.270625 -31.45429688 120.29125 -30.46484375 120.3125 C-24.45199534 120.34513418 -18.31323546 120.12647069 -13 117 C-11.73412842 114.9782248 -11.73412842 114.9782248 -11 113 C-10.34 113 -9.68 113 -9 113 C-9 112.34 -9 111.68 -9 111 C-8.01 110.34 -7.02 109.68 -6 109 C0.47931542 100.70647626 -0.7429204 88.71525163 -0.83984375 78.80859375 C-0.84614117 77.33578392 -0.85137216 75.86296919 -0.85560608 74.39015198 C-0.86883338 70.52161749 -0.89317721 66.6532445 -0.92095947 62.78479004 C-0.96934884 55.9177855 -1.00247474 49.05072058 -1.02734375 42.18359375 C-1.03186617 41.07815783 -1.03186617 41.07815783 -1.03647995 39.95038986 C-1.08342693 26.61489936 -0.71325522 13.31796816 0 0 Z " fill="#C2DBF0" transform="translate(258,344)"/>
<path d="M0 0 C12.89072255 -0.0231211 25.7814402 -0.04091389 38.67217922 -0.05181217 C44.65719266 -0.05704151 50.64219196 -0.06414008 56.62719727 -0.07543945 C62.39783429 -0.08626653 68.16845768 -0.09227645 73.93910408 -0.09487724 C76.14602943 -0.09673182 78.352954 -0.10035304 80.55987358 -0.10573006 C83.63946041 -0.1129381 86.71899014 -0.11399104 89.79858398 -0.11352539 C90.72071182 -0.11712067 91.64283966 -0.12071594 92.59291077 -0.12442017 C98.88594784 -0.11405216 98.88594784 -0.11405216 100 1 C100.65213752 7.26867191 98.80598513 11.40610702 96 16.9375 C95.6184375 17.71673828 95.236875 18.49597656 94.84375 19.29882812 C93.90807109 21.2052739 92.9557085 23.10351594 92 25 C91.67 25 91.34 25 91 25 C91 23.02 91 21.04 91 19 C91.66 19 92.32 19 93 19 C93 18.01 93 17.02 93 16 C93.66 16 94.32 16 95 16 C95 14.35 95 12.7 95 11 C95.66 11 96.32 11 97 11 C97.33 9.02 97.66 7.04 98 5 C97.01 4.505 97.01 4.505 96 4 C96 3.67 96 3.34 96 3 C95.09227844 2.98969254 94.18455688 2.97938507 93.24932861 2.96876526 C84.60241555 2.86988958 75.95555624 2.76726618 67.30873489 2.66066074 C62.86567455 2.60600896 58.42260738 2.55269642 53.97949219 2.50268555 C16.18952864 2.0755189 16.18952864 2.0755189 0 1 C0 0.67 0 0.34 0 0 Z " fill="#25D2F2" transform="translate(336,257)"/>
<path d="M0 0 C5.94 0 11.88 0 18 0 C18 0.33 18 0.66 18 1 C16.92878906 1.12117188 15.85757812 1.24234375 14.75390625 1.3671875 C13.35671248 1.53597601 11.95958009 1.70527313 10.5625 1.875 C9.85544922 1.95363281 9.14839844 2.03226562 8.41992188 2.11328125 C6.60326568 2.33927676 4.79937478 2.66300727 3 3 C2.67 3.66 2.34 4.32 2 5 C2.66 5 3.32 5 4 5 C4 16.88 4 28.76 4 41 C6.41774581 42.20887291 7.93331064 42.12059343 10.63330078 42.11352539 C11.59414581 42.11344986 12.55499084 42.11337433 13.54495239 42.11329651 C15.10438065 42.10555458 15.10438065 42.10555458 16.6953125 42.09765625 C17.75789276 42.0962413 18.82047302 42.09482635 19.91525269 42.09336853 C23.31853009 42.08775834 26.72174238 42.07520409 30.125 42.0625 C32.42838447 42.05748631 34.73176997 42.05292318 37.03515625 42.04882812 C42.69012649 42.0377856 48.34505859 42.02103752 54 42 C50.88372945 43.81725255 48.63873608 44.2455605 45.04785156 44.22705078 C44.06713684 44.22689972 43.08642212 44.22674866 42.07598877 44.22659302 C40.4992337 44.21110916 40.4992337 44.21110916 38.890625 44.1953125 C37.80867859 44.1924826 36.72673218 44.18965271 35.61199951 44.18673706 C32.15788696 44.17554609 28.70403412 44.1504432 25.25 44.125 C22.90755583 44.11496881 20.56510759 44.1058432 18.22265625 44.09765625 C12.48159038 44.07731229 6.74108576 44.03816084 1 44 C0.67 29.48 0.34 14.96 0 0 Z " fill="#1171D2" transform="translate(294,257)"/>
<path d="M0 0 C1.72435776 -0.00374634 1.72435776 -0.00374634 3.48355103 -0.00756836 C6.78333558 -0.01345395 10.08302693 -0.0119719 13.3828125 -0.0078125 C14.38266678 -0.00979645 15.38252106 -0.0117804 16.41267395 -0.01382446 C17.7999897 -0.00915665 17.7999897 -0.00915665 19.21533203 -0.00439453 C20.42529343 -0.00320114 20.42529343 -0.00320114 21.65969849 -0.00198364 C23.88515344 0.12558201 25.76900152 0.39150542 27.875 1.125 C29.34659565 4.06819131 29.18702502 5.80652215 28.875 9.125 C27.65586062 12.72358367 26.12020377 16.16182603 24.5625 19.625 C24.15837891 20.54925781 23.75425781 21.47351563 23.33789062 22.42578125 C21.30099803 27.05598588 19.19100647 31.62790006 16.875 36.125 C16.1875 34.4375 16.1875 34.4375 15.875 32.125 C16.86251215 30.45090396 17.86500097 28.78562631 18.875 27.125 C19.77150858 24.97550762 20.62422028 22.80734306 21.4375 20.625 C23.875 14.125 23.875 14.125 24.96484375 11.65625 C26.21035871 8.45981327 26.21035871 8.45981327 26.875 2.125 C-0.845 2.125 -28.565 2.125 -57.125 2.125 C-57.125 1.795 -57.125 1.465 -57.125 1.125 C-38.08281827 0.2260847 -19.06112206 0.01469979 0 0 Z " fill="#4D6D74" transform="translate(375.125,195.875)"/>
<path d="M0 0 C0.33 0 0.66 0 1 0 C2.0151052 5.02283887 2.13052591 9.80213373 2.09765625 14.8984375 C2.0962413 15.73339752 2.09482635 16.56835754 2.09336853 17.42861938 C2.08780174 20.07745042 2.07525547 22.7261948 2.0625 25.375 C2.0574807 27.17838419 2.05291855 28.98176971 2.04882812 30.78515625 C2.0378432 35.19013721 2.02060163 39.59505394 2 44 C17.96828304 43.96284094 33.93629445 43.90299177 49.90437698 43.81609726 C57.31857926 43.77628051 64.73267498 43.74390151 72.14697266 43.72900391 C78.60896796 43.71600093 85.0707291 43.68907132 91.53259254 43.64538693 C94.95445796 43.62274115 98.37603425 43.60709115 101.79798126 43.60811615 C105.6173088 43.60576053 109.43571354 43.57879206 113.25488281 43.54589844 C114.95852242 43.55344398 114.95852242 43.55344398 116.69657898 43.56114197 C117.73701859 43.54722916 118.77745819 43.53331635 119.84942627 43.51898193 C120.75278339 43.51529476 121.65614052 43.51160759 122.5868721 43.50780869 C125.72572508 42.84728141 126.95411206 41.39880863 129 39 C128.75 41.375 128.75 41.375 128 44 C124.94741313 46.03758379 122.46426607 46.23943129 118.84942627 46.20254517 C117.80898666 46.19688034 116.76854706 46.19121552 115.69657898 46.18537903 C114.56081924 46.16883774 113.42505951 46.15229645 112.25488281 46.13525391 C111.05460953 46.12579239 109.85433624 46.11633087 108.61769104 46.10658264 C105.33071254 46.07868632 102.04398344 46.04177509 98.75714588 46.00085878 C95.3205657 45.9602087 91.88388837 45.9310784 88.44720459 45.90072632 C81.94132502 45.84151708 75.43559914 45.77194729 68.92986465 45.69865549 C61.52249086 45.61571052 54.11501985 45.54431488 46.7075181 45.47388959 C31.47152719 45.32877776 16.23576225 45.16763712 1 45 C0.67 30.15 0.34 15.3 0 0 Z " fill="#0C4F94" transform="translate(293,257)"/>
<path d="M0 0 C22.77 0 45.54 0 69 0 C69 7.875 69 7.875 66.5 12.4375 C66.0359375 13.30246094 65.571875 14.16742188 65.09375 15.05859375 C64.7328125 15.69925781 64.371875 16.33992188 64 17 C63.505 15.515 63.505 15.515 63 14 C62.34 14.33 61.68 14.66 61 15 C60.505 13.515 60.505 13.515 60 12 C60.99 11.67 61.98 11.34 63 11 C65.22189824 8.77810176 65.92598892 6.91517292 67 4 C65.20030759 1.77090857 65.20030759 1.77090857 62.72265625 1.8046875 C61.84480469 1.82789063 60.96695313 1.85109375 60.0625 1.875 C58.74958984 1.90207031 58.74958984 1.90207031 57.41015625 1.9296875 C56.61480469 1.95289063 55.81945312 1.97609375 55 2 C54.01 2 53.02 2 52 2 C50.47477071 2.00486093 48.94954295 2.01021204 47.42431641 2.01586914 C42.27214141 2.0338547 37.11997054 2.04541872 31.96777344 2.05493164 C29.74283374 2.05996912 27.51789737 2.06679927 25.29296875 2.07543945 C22.08332509 2.08757556 18.87372492 2.09324284 15.6640625 2.09765625 C14.67121246 2.10281754 13.67836243 2.10797882 12.65542603 2.11329651 C11.72451141 2.11337204 10.7935968 2.11344757 9.83447266 2.11352539 C9.01967438 2.115746 8.2048761 2.11796661 7.36538696 2.12025452 C4.83005399 1.99136007 2.47421932 1.55488626 0 1 C0 0.67 0 0.34 0 0 Z " fill="#A6F7FA" transform="translate(333,198)"/>
<path d="M0 0 C0.99 0 1.98 0 3 0 C3.33 15.51 3.66 31.02 4 47 C2.68 47 1.36 47 0 47 C0 31.49 0 15.98 0 0 Z " fill="#13456C" transform="translate(291,198)"/>
<path d="M0 0 C11.96073154 -0.06939946 23.92141546 -0.12276002 35.88230705 -0.15543652 C41.43577034 -0.17111672 46.98909626 -0.19239788 52.54248047 -0.22631836 C57.89816774 -0.25882792 63.25372259 -0.27683526 68.60950089 -0.28463173 C70.65652681 -0.29019038 72.70354519 -0.30104452 74.75051498 -0.31719017 C77.60971702 -0.33885281 80.46836632 -0.34197163 83.32763672 -0.34057617 C84.18071411 -0.351362 85.0337915 -0.36214783 85.91271973 -0.3732605 C88.26681519 -0.36076355 88.26681519 -0.36076355 92 0 C94 3 94 3 93.84765625 6.19140625 C92.8933397 10.47923405 91.37756024 14.02280419 89.4375 17.9375 C89.10814453 18.62134766 88.77878906 19.30519531 88.43945312 20.00976562 C87.63482961 21.67731871 86.8186103 23.33926839 86 25 C84.87241911 21.61725734 85.18249738 20.23221777 85.9375 16.8125 C86.13214844 15.91144531 86.32679688 15.01039063 86.52734375 14.08203125 C86.76130859 13.05142578 86.76130859 13.05142578 87 12 C87.99 11.67 88.98 11.34 90 11 C91.52174919 8.32917961 91.52174919 8.32917961 91 2 C60.97 1.67 30.94 1.34 0 1 C0 0.67 0 0.34 0 0 Z " fill="#001635" transform="translate(296,311)"/>
<path d="M0 0 C9.48346015 -0.04627819 18.96688161 -0.08184612 28.45042992 -0.10362434 C32.85371251 -0.11407518 37.25691802 -0.12825796 41.66015625 -0.15087891 C45.90709824 -0.17256112 50.15396596 -0.18455883 54.40095901 -0.18975449 C56.02373042 -0.19345858 57.64649762 -0.20069146 59.26923752 -0.21146011 C61.53684117 -0.2259138 63.80413528 -0.22798054 66.07177734 -0.22705078 C67.36417328 -0.231492 68.65656921 -0.23593323 69.98812866 -0.24050903 C73 0 73 0 75 2 C75.61174693 8.34177653 74.42246304 12.19657561 71.375 17.6875 C70.64144191 19.07588008 69.90969742 20.46521977 69.1796875 21.85546875 C68.81327148 22.54431152 68.44685547 23.2331543 68.06933594 23.94287109 C65.51132431 28.86383136 63.2838976 33.94774166 61 39 C59.80483601 35.41450802 60.23010867 34.85754494 61.765625 31.54296875 C62.16136719 30.67736328 62.55710937 29.81175781 62.96484375 28.91992188 C63.38894531 28.01822266 63.81304687 27.11652344 64.25 26.1875 C64.86294922 24.85235352 64.86294922 24.85235352 65.48828125 23.49023438 C67.18214619 19.81656267 68.90287578 16.18530279 70.78125 12.6015625 C72.34636699 9.2606397 72.28572273 6.64296486 72 3 C70.11790302 1.11790302 66.87609119 1.82563076 64.36889648 1.79467773 C63.32992218 1.77982834 63.32992218 1.77982834 62.2699585 1.76467896 C59.97037221 1.7329797 57.67076523 1.70827349 55.37109375 1.68359375 C53.78067982 1.66303148 52.19027145 1.64203521 50.59986877 1.62062073 C46.40610237 1.56532491 42.21228605 1.5159489 38.01843262 1.46777344 C33.74206072 1.41761309 29.46576166 1.36189856 25.18945312 1.30664062 C16.79303027 1.19896726 8.39654662 1.09754284 0 1 C0 0.67 0 0.34 0 0 Z " fill="#01202B" transform="translate(363,255)"/>
<path d="M0 0 C10.02227763 -0.0231241 20.04454897 -0.04091543 30.0668478 -0.05181217 C34.72011186 -0.05704085 39.37335774 -0.06413823 44.02661133 -0.07543945 C48.51344546 -0.08626886 53.00026204 -0.09227695 57.48710823 -0.09487724 C59.20280293 -0.0967314 60.91849662 -0.10035182 62.63418388 -0.10573006 C65.02884913 -0.11294121 67.42344096 -0.11399091 69.81811523 -0.11352539 C70.53452682 -0.11712067 71.25093842 -0.12071594 71.98905945 -0.12442017 C76.88594784 -0.11405216 76.88594784 -0.11405216 78 1 C78.07226502 2.85287502 78.0838122 4.70833878 78.0625 6.5625 C78.05347656 7.57441406 78.04445313 8.58632812 78.03515625 9.62890625 C78.02355469 10.41136719 78.01195312 11.19382813 78 12 C77.67 12 77.34 12 77 12 C76.7834375 10.6078125 76.7834375 10.6078125 76.5625 9.1875 C76.07899889 5.99274889 76.07899889 5.99274889 75 3 C74.38253906 3.01160156 73.76507813 3.02320313 73.12890625 3.03515625 C72.28199219 3.04417969 71.43507813 3.05320313 70.5625 3.0625 C69.32693359 3.07990234 69.32693359 3.07990234 68.06640625 3.09765625 C65 3 65 3 61.11523438 2.51367188 C55.11541297 1.83364699 49.12269794 1.77076606 43.08984375 1.68359375 C41.27777184 1.6524221 41.27777184 1.6524221 39.42909241 1.62062073 C35.59861527 1.55562961 31.76807399 1.49647635 27.9375 1.4375 C25.32876961 1.39426674 22.72004552 1.35065097 20.11132812 1.30664062 C13.74095175 1.20000042 7.37051263 1.09814361 1 1 C1 2.98 1 4.96 1 7 C0.67 7 0.34 7 0 7 C0 4.69 0 2.38 0 0 Z " fill="#D7DFE5" transform="translate(277,159)"/>
<path d="M0 0 C0.495 1.485 0.495 1.485 1 3 C-2.39276912 9.78553824 -8.79940245 14.71642777 -15.625 17.875 C-27.71695409 21.90565136 -41.368216 21.13722809 -53 16 C-54.86328125 14.36328125 -54.86328125 14.36328125 -56 13 C-50.43548387 12.62903226 -50.43548387 12.62903226 -48.3125 14.4375 C-47.879375 14.953125 -47.44625 15.46875 -47 16 C-42.50644066 17.49785311 -38.08255951 17.22532079 -33.375 17.25 C-32.41464844 17.270625 -31.45429688 17.29125 -30.46484375 17.3125 C-24.45199534 17.34513418 -18.31323546 17.12647069 -13 14 C-11.73412842 11.9782248 -11.73412842 11.9782248 -11 10 C-10.34 10 -9.68 10 -9 10 C-9 9.34 -9 8.68 -9 8 C-7.6078125 7.690625 -7.6078125 7.690625 -6.1875 7.375 C-2.73995905 6.25553808 -2.73995905 6.25553808 -1.125 2.875 C-0.75375 1.92625 -0.3825 0.9775 0 0 Z " fill="#3A414A" transform="translate(258,447)"/>
<path d="M0 0 C29.7 0 59.4 0 90 0 C90 0.33 90 0.66 90 1 C89.14381577 1.01030746 88.28763153 1.02061493 87.40550232 1.03123474 C79.27209036 1.1298785 71.13873947 1.23247743 63.00543118 1.33933926 C58.82566534 1.39412164 54.64589222 1.44746141 50.46606445 1.49731445 C46.42001857 1.54562813 42.37404196 1.59797899 38.32808113 1.65294075 C36.79702581 1.67306583 35.26595175 1.69182122 33.73486137 1.70907402 C26.02486018 1.79684863 18.32442808 1.96039777 10.62524414 2.39477539 C8.81921471 2.49490685 8.81921471 2.49490685 6.97669983 2.59706116 C3.82106453 2.80290282 3.82106453 2.80290282 1 5 C0.67 3.35 0.34 1.7 0 0 Z " fill="#DADEE3" transform="translate(84,159)"/>
<path d="M0 0 C3.96 0 7.92 0 12 0 C11.67 0.99 11.34 1.98 11 3 C10.34 3 9.68 3 9 3 C9 2.34 9 1.68 9 1 C6.69 1.66 4.38 2.32 2 3 C2 14.55 2 26.1 2 38 C8.93 38 15.86 38 23 38 C23 38.33 23 38.66 23 39 C15.41 39 7.82 39 0 39 C0 26.13 0 13.26 0 0 Z " fill="#1950AC" transform="translate(295,313)"/>
<path d="M0 0 C8.91 0 17.82 0 27 0 C22.5178049 2.24109755 22.5178049 2.24109755 18.77734375 2.01953125 C17.99166016 1.99052734 17.20597656 1.96152344 16.39648438 1.93164062 C14.75265766 1.85199533 13.10935199 1.76078167 11.46679688 1.65820312 C9.21184205 1.58594081 7.2121369 1.55018151 5 2 C2.85186495 4.34841756 2.85186495 4.34841756 2 7 C2.66 7 3.32 7 4 7 C4 7.66 4 8.32 4 9 C7.3 9 10.6 9 14 9 C14 9.66 14 10.32 14 11 C9.38 11 4.76 11 0 11 C0 7.37 0 3.74 0 0 Z " fill="#C3D2E6" transform="translate(84,366)"/>
<path d="M0 0 C3.37805301 2.70104652 6.05016097 5.57379968 7.828125 9.57421875 C7.498125 10.23421875 7.168125 10.89421875 6.828125 11.57421875 C1.828125 5.82421875 1.828125 5.82421875 1.828125 3.57421875 C0.8690625 3.20296875 0.8690625 3.20296875 -0.109375 2.82421875 C-3.44542775 1.46256457 -6.71424239 -0.01976281 -9.98828125 -1.5234375 C-14.57272208 -3.41790231 -18.86630234 -3.65217622 -23.796875 -3.67578125 C-24.86276855 -3.68170288 -24.86276855 -3.68170288 -25.95019531 -3.68774414 C-31.04564158 -3.63165491 -35.38146984 -2.8625665 -40.15625 -0.984375 C-42.52903626 -0.32680051 -43.86918479 -0.64265913 -46.171875 -1.42578125 C-32.31554186 -7.73435569 -13.0801491 -8.58678853 0 0 Z " fill="#19191A" transform="translate(250.171875,47.42578125)"/>
<path d="M0 0 C2.31 0.33 4.62 0.66 7 1 C3.83761216 4.7948654 0.75799109 6.14854183 -4 7 C-7.71282693 7.27512954 -11.40350606 7.27973231 -15.125 7.25 C-16.10082031 7.25773437 -17.07664063 7.26546875 -18.08203125 7.2734375 C-19.02691406 7.27085937 -19.97179687 7.26828125 -20.9453125 7.265625 C-22.22172607 7.26224121 -22.22172607 7.26224121 -23.52392578 7.25878906 C-26.30130651 6.96850869 -28.46375547 6.1419621 -31 5 C-30.01 4.01 -29.02 3.02 -28 2 C-27.34 2.33 -26.68 2.66 -26 3 C-26 3.33 -26 3.66 -26 4 C-12.62541253 5.68953113 -12.62541253 5.68953113 0 2 C0 1.34 0 0.68 0 0 Z " fill="#B1C8DE" transform="translate(240,458)"/>
<path d="M0 0 C0.495 1.485 0.495 1.485 1 3 C-1 6 -1 6 -3.72671509 6.68614197 C-6.97882931 6.99797005 -10.10657827 7.08171591 -13.37255859 7.02172852 C-14.61339203 7.00163223 -15.85422546 6.98153595 -17.13265991 6.96083069 C-18.47125485 6.93364099 -19.80984733 6.90633004 -21.1484375 6.87890625 C-22.52990903 6.85457658 -23.91138922 6.83073449 -25.2928772 6.80735779 C-28.91296325 6.74479981 -32.53289413 6.67565455 -36.15283203 6.60510254 C-39.85311877 6.53416208 -43.55351474 6.46949948 -47.25390625 6.40429688 C-54.50272506 6.27564967 -61.75139135 6.14003809 -69 6 C-69 5.67 -69 5.34 -69 5 C-68.17980881 4.99635437 -67.35961761 4.99270874 -66.51457214 4.98895264 C-58.78926376 4.95110364 -51.06443927 4.89428711 -43.33944225 4.81609726 C-39.36779807 4.77656845 -35.39637738 4.74440685 -31.42456055 4.72900391 C-27.59229266 4.71387236 -23.76063899 4.67949074 -19.92864418 4.63169098 C-18.46585742 4.6168407 -17.00298298 4.60895689 -15.54012108 4.60811615 C-13.49246936 4.60575543 -11.44652758 4.57875436 -9.39916992 4.54589844 C-8.23334885 4.53701599 -7.06752777 4.52813354 -5.86637878 4.51898193 C-2.87491566 4.27215029 -2.87491566 4.27215029 -1.10005188 1.96588135 C-0.73703476 1.3171405 -0.37401764 0.66839966 0 0 Z " fill="#0670A0" transform="translate(421,296)"/>
<path d="M0 0 C1.03962891 0.00193359 2.07925781 0.00386719 3.15039062 0.00585938 C13.03570482 0.060009 22.88521348 0.51390703 32.75 1.125 C32.75 1.455 32.75 1.785 32.75 2.125 C26.95185875 2.29386675 21.15356486 2.45428069 15.35498047 2.60717773 C13.38616794 2.66024502 11.4174141 2.7155421 9.44873047 2.77319336 C6.60396989 2.85609946 3.75908829 2.93073881 0.9140625 3.00390625 C0.04697662 3.03094131 -0.82010925 3.05797638 -1.71347046 3.08583069 C-7.63188691 3.22740415 -13.3745335 2.84092889 -19.25 2.125 C-19.25 1.795 -19.25 1.465 -19.25 1.125 C-12.79936867 0.16199106 -6.51691551 -0.02945023 0 0 Z " fill="#12A2ED" transform="translate(323.25,256.875)"/>
<path d="M0 0 C2.31 0 4.62 0 7 0 C6.67 0.66 6.34 1.32 6 2 C5.01 2 4.02 2 3 2 C2.67 4.64 2.34 7.28 2 10 C16.52 10 31.04 10 46 10 C46 10.33 46 10.66 46 11 C30.82 11 15.64 11 0 11 C0 7.37 0 3.74 0 0 Z " fill="#CFE0F1" transform="translate(277,366)"/>
<path d="M0 0 C0.33 0 0.66 0 1 0 C1.09943798 4.5714698 1.17173349 9.14229975 1.21972656 13.71459961 C1.2397487 15.26744565 1.26697517 16.82021719 1.30175781 18.37280273 C1.3506961 20.61460832 1.37306168 22.85541093 1.390625 25.09765625 C1.41127014 25.78336197 1.43191528 26.46906769 1.45318604 27.17555237 C1.45566975 32.60260152 -0.10295358 35.59177799 -3 40 C-3.99 39.34 -4.98 38.68 -6 38 C-5.01 37.505 -5.01 37.505 -4 37 C-0.31612249 27.24855953 -0.89290905 16.4231956 -1.0625 6.15234375 C-1 3 -1 3 0 0 Z " fill="#B9D5ED" transform="translate(258,414)"/>
<path d="M0 0 C5.94 0 11.88 0 18 0 C18 3.63 18 7.26 18 11 C16.02 11 14.04 11 12 11 C12 10.34 12 9.68 12 9 C12.66 9 13.32 9 14 9 C14 7.02 14 5.04 14 3 C10.68929162 1.99890485 7.69915231 1.89643866 4.25 1.9375 C3.26515625 1.94652344 2.2803125 1.95554687 1.265625 1.96484375 C0.14414062 1.98224609 0.14414062 1.98224609 -1 2 C-0.67 1.34 -0.34 0.68 0 0 Z " fill="#A6C7E8" transform="translate(333,366)"/>
<path d="M0 0 C0.99 0 1.98 0 3 0 C4.47159565 2.94319131 4.31202502 4.68152215 4 8 C2.78086062 11.59858367 1.24520377 15.03682603 -0.3125 18.5 C-0.91868164 19.88638672 -0.91868164 19.88638672 -1.53710938 21.30078125 C-3.57400197 25.93098588 -5.68399353 30.50290006 -8 35 C-8.6875 33.3125 -8.6875 33.3125 -9 31 C-8.01248785 29.32590396 -7.00999903 27.66062631 -6 26 C-5.10349142 23.85050762 -4.25077972 21.68234306 -3.4375 19.5 C-1 13 -1 13 0.11328125 10.33203125 C1.27762166 7.26986726 1.61856217 4.24222153 2 1 C1.34 0.67 0.68 0.34 0 0 Z " fill="#183337" transform="translate(400,197)"/>
<path d="M0 0 C-0.33 1.32 -0.66 2.64 -1 4 C-10.9 4 -20.8 4 -31 4 C-26.8361678 1.9180839 -25.1985783 1.80497714 -20.6875 1.9375 C-15.95764311 2.01712722 -11.64797802 1.808344 -7 1 C-6.01 1 -5.02 1 -4 1 C-2 0 -2 0 0 0 Z " fill="#44EAFA" transform="translate(385,240)"/>
<path d="M0 0 C1 1 1 1 1.09765625 3.50390625 C1.08605469 4.51324219 1.07445312 5.52257812 1.0625 6.5625 C1.05347656 7.57441406 1.04445313 8.58632812 1.03515625 9.62890625 C1.02355469 10.41136719 1.01195312 11.19382813 1 12 C0.67 12 0.34 12 0 12 C-0.144375 11.071875 -0.28875 10.14375 -0.4375 9.1875 C-0.92100111 5.99274889 -0.92100111 5.99274889 -2 3 C-2.61746094 3.01160156 -3.23492187 3.02320313 -3.87109375 3.03515625 C-9.67525544 3.09699663 -15.24338088 2.74278956 -21 2 C-21 1.67 -21 1.34 -21 1 C-14.07030839 -0.31994126 -7.03403491 -0.32058604 0 0 Z " fill="#BFD2DF" transform="translate(354,159)"/>
<path d="M0 0 C1.65 0.33 3.3 0.66 5 1 C5.53533223 7.29851833 3.82491346 11.3687939 1 16.9375 C0.6184375 17.71673828 0.236875 18.49597656 -0.15625 19.29882812 C-1.09192891 21.2052739 -2.0442915 23.10351594 -3 25 C-3.33 25 -3.66 25 -4 25 C-4 23.02 -4 21.04 -4 19 C-3.34 19 -2.68 19 -2 19 C-2 18.01 -2 17.02 -2 16 C-1.34 16 -0.68 16 0 16 C0 14.35 0 12.7 0 11 C0.66 11 1.32 11 2 11 C2 9.68 2 8.36 2 7 C2.66 7 3.32 7 4 7 C3.72965366 4.56282742 3.72965366 4.56282742 3 2 C2.01 1.34 1.02 0.68 0 0 Z " fill="#1EB4E0" transform="translate(431,257)"/>
<path d="M0 0 C0.99 0 1.98 0 3 0 C3.7342166 6.75479274 1.27591952 11.18524285 -2 17 C-2.33 16.01 -2.66 15.02 -3 14 C-3.99 14.495 -3.99 14.495 -5 15 C-5.33 14.01 -5.66 13.02 -6 12 C-5.01 11.67 -4.02 11.34 -3 11 C-0.72204978 8.72204978 0.05219877 7.06212707 1 4 C0.71260075 1.75759218 0.71260075 1.75759218 0 0 Z " fill="#BEEFF2" transform="translate(399,198)"/>
<path d="M0 0 C0.66 0 1.32 0 2 0 C1.48053489 5.62631926 -0.06455678 9.89709576 -2.5625 14.9375 C-3.0565332 15.96327148 -3.0565332 15.96327148 -3.56054688 17.00976562 C-4.36517039 18.67731871 -5.1813897 20.33926839 -6 22 C-7.12758089 18.61725734 -6.81750262 17.23221777 -6.0625 13.8125 C-5.86785156 12.91144531 -5.67320312 12.01039063 -5.47265625 11.08203125 C-5.23869141 10.05142578 -5.23869141 10.05142578 -5 9 C-4.01 8.67 -3.02 8.34 -2 8 C-1.19787372 6.12612784 -1.19787372 6.12612784 -0.8125 3.9375 C-0.65394531 3.20402344 -0.49539063 2.47054688 -0.33203125 1.71484375 C-0.22246094 1.14894531 -0.11289062 0.58304687 0 0 Z " fill="#063360" transform="translate(388,314)"/>
<path d="M0 0 C0.33 0.99 0.66 1.98 1 3 C-1.34061238 7.23110699 -3.87990813 10.42494258 -8 13 C-10.3125 12.75 -10.3125 12.75 -12 12 C-11.67 11.34 -11.34 10.68 -11 10 C-10.34 10 -9.68 10 -9 10 C-9 9.34 -9 8.68 -9 8 C-8.071875 7.79375 -7.14375 7.5875 -6.1875 7.375 C-2.73995905 6.25553808 -2.73995905 6.25553808 -1.125 2.875 C-0.75375 1.92625 -0.3825 0.9775 0 0 Z " fill="#6A7B8B" transform="translate(258,447)"/>
<path d="M0 0 C0.99 0.33 1.98 0.66 3 1 C1.948125 1.61875 0.89625 2.2375 -0.1875 2.875 C-5.53169484 6.66905313 -8.21687042 12.5194241 -9.6328125 18.8125 C-9.75398437 19.534375 -9.87515625 20.25625 -10 21 C-10.33 21 -10.66 21 -11 21 C-11.91228433 14.00582011 -9.08959847 9.55568094 -5 4 C-2.3125 1.3125 -2.3125 1.3125 0 0 Z " fill="#353539" transform="translate(203,47)"/>
<path d="M0 0 C0.66 0.33 1.32 0.66 2 1 C2 1.33 2 1.66 2 2 C7.28 2.66 12.56 3.32 18 4 C18 4.33 18 4.66 18 5 C15.43721301 5.05420701 12.87558517 5.09377007 10.3125 5.125 C9.59126953 5.14175781 8.87003906 5.15851563 8.12695312 5.17578125 C3.95123219 5.21391569 0.7505862 4.8789919 -3 3 C-2.01 2.01 -1.02 1.02 0 0 Z " fill="#C6D5E5" transform="translate(212,460)"/>
<path d="M0 0 C0.99 0 1.98 0 3 0 C3.95024979 3.69541586 3.95024979 6.30458414 3 10 C0.20127563 7.47211993 -1.45773019 5.79588866 -2 2 C-1.34 2 -0.68 2 0 2 C0 1.34 0 0.68 0 0 Z " fill="#D4DEE9" transform="translate(196,446)"/>
<path d="M0 0 C0.33 0 0.66 0 1 0 C1.33 3.3 1.66 6.6 2 10 C5.3 10.66 8.6 11.32 12 12 C12 12.33 12 12.66 12 13 C8.04 13 4.08 13 0 13 C0 8.71 0 4.42 0 0 Z " fill="#175DBC" transform="translate(295,288)"/>
<path d="M0 0 C5.28 0 10.56 0 16 0 C16 0.33 16 0.66 16 1 C14.94039063 1.12117188 13.88078125 1.24234375 12.7890625 1.3671875 C11.40098676 1.53600752 10.01296881 1.70530308 8.625 1.875 C7.92632812 1.95363281 7.22765625 2.03226562 6.5078125 2.11328125 C2.30927841 2.55220445 2.30927841 2.55220445 -1 5 C-0.67 3.35 -0.34 1.7 0 0 Z " fill="#1B7CD4" transform="translate(296,257)"/>
<path d="M0 0 C0.33 0 0.66 0 1 0 C1.49940808 6.11774896 0.24900602 9.02495953 -3 14 C-3.99 13.34 -4.98 12.68 -6 12 C-5.34 11.67 -4.68 11.34 -4 11 C-3.27840576 9.35636866 -2.60648579 7.68949614 -2 6 C-1.34 6 -0.68 6 0 6 C0 4.02 0 2.04 0 0 Z " fill="#AAC2D5" transform="translate(258,440)"/>
<path d="M0 0 C6.27 0 12.54 0 19 0 C19 0.33 19 0.66 19 1 C17.95199219 1.04898438 16.90398437 1.09796875 15.82421875 1.1484375 C14.44528646 1.22348143 13.0663815 1.29902857 11.6875 1.375 C10.65206055 1.42140625 10.65206055 1.42140625 9.59570312 1.46875 C5.93009211 1.68124919 4.12099208 1.91933861 1 4 C0.67 2.68 0.34 1.36 0 0 Z " fill="#D5DFEC" transform="translate(84,160)"/>
<path d="M0 0 C1.32 0 2.64 0 4 0 C2.87548273 2.9719385 1.77706209 5.33440687 0 8 C-0.66 8 -1.32 8 -2 8 C-1.47731534 5.23723823 -0.89130413 2.6739124 0 0 Z " fill="#79E0E2" transform="translate(394,214)"/>
<path d="M0 0 C0.66 0.99 1.32 1.98 2 3 C1.15955106 6.43183318 0.51471866 8.48528134 -2 11 C-2 8.36 -2 5.72 -2 3 C-1.34 3 -0.68 3 0 3 C0 2.01 0 1.02 0 0 Z " fill="#0E549E" transform="translate(379,333)"/>
<path d="M0 0 C0.99 0.99 1.98 1.98 3 3 C1.515 5.475 1.515 5.475 0 8 C-0.33 7.01 -0.66 6.02 -1 5 C-1.99 5.495 -1.99 5.495 -3 6 C-3.33 5.01 -3.66 4.02 -4 3 C-3.01 2.67 -2.02 2.34 -1 2 C-0.67 1.34 -0.34 0.68 0 0 Z " fill="#9CF3F6" transform="translate(397,207)"/>
<path d="M0 0 C0.66 0 1.32 0 2 0 C1.67 1.98 1.34 3.96 1 6 C1.66 6 2.32 6 3 6 C3 6.66 3 7.32 3 8 C3.66 8.33 4.32 8.66 5 9 C3.35 9 1.7 9 0 9 C0 6.03 0 3.06 0 0 Z " fill="#B4C7DF" transform="translate(85,367)"/>
<path d="M0 0 C0.33 0.99 0.66 1.98 1 3 C-1 6 -1 6 -4 6.8125 C-4.99 6.874375 -5.98 6.93625 -7 7 C-7.66 6.34 -8.32 5.68 -9 5 C-7.88625 4.731875 -6.7725 4.46375 -5.625 4.1875 C-1.78159049 3.34190981 -1.78159049 3.34190981 0 0 Z " fill="#033A5C" transform="translate(421,296)"/>
<path d="M0 0 C2.33294775 -0.04241723 4.66702567 -0.04092937 7 0 C8 1 8 1 8.0625 3.5625 C8.041875 4.366875 8.02125 5.17125 8 6 C7.67 5.34 7.34 4.68 7 4 C6.34 3.67 5.68 3.34 5 3 C5 2.67 5 2.34 5 2 C3.35 1.67 1.7 1.34 0 1 C0 0.67 0 0.34 0 0 Z " fill="#12CBF6" transform="translate(427,258)"/>
<path d="" fill="#000000" transform="translate(0,0)"/>
<path d="" fill="#000000" transform="translate(0,0)"/>
<path d="" fill="#000000" transform="translate(0,0)"/>
<path d="" fill="#000000" transform="translate(0,0)"/>
<path d="" fill="#000000" transform="translate(0,0)"/>
<path d="" fill="#000000" transform="translate(0,0)"/>
<path d="" fill="#000000" transform="translate(0,0)"/>
<path d="" fill="#000000" transform="translate(0,0)"/>
<path d="" fill="#000000" transform="translate(0,0)"/>
<path d="" fill="#000000" transform="translate(0,0)"/>
<path d="" fill="#000000" transform="translate(0,0)"/>
<path d="" fill="#000000" transform="translate(0,0)"/>
<path d="" fill="#000000" transform="translate(0,0)"/>
<path d="" fill="#000000" transform="translate(0,0)"/>
<path d="" fill="#000000" transform="translate(0,0)"/>
<path d="" fill="#000000" transform="translate(0,0)"/>
<path d="" fill="#000000" transform="translate(0,0)"/>
<path d="" fill="#000000" transform="translate(0,0)"/>
<path d="" fill="#000000" transform="translate(0,0)"/>
<path d="" fill="#000000" transform="translate(0,0)"/>
<path d="" fill="#000000" transform="translate(0,0)"/>
<path d="" fill="#000000" transform="translate(0,0)"/>
<path d="" fill="#000000" transform="translate(0,0)"/>
<path d="" fill="#000000" transform="translate(0,0)"/>
<path d="" fill="#000000" transform="translate(0,0)"/>
<path d="" fill="#000000" transform="translate(0,0)"/>
<path d="" fill="#000000" transform="translate(0,0)"/>
<path d="" fill="#000000" transform="translate(0,0)"/>
<path d="" fill="#000000" transform="translate(0,0)"/>
<path d="" fill="#000000" transform="translate(0,0)"/>
<path d="" fill="#000000" transform="translate(0,0)"/>
<path d="" fill="#000000" transform="translate(0,0)"/>
<path d="" fill="#000000" transform="translate(0,0)"/>
<path d="" fill="#000000" transform="translate(0,0)"/>
<path d="" fill="#000000" transform="translate(0,0)"/>
<path d="" fill="#000000" transform="translate(0,0)"/>
<path d="" fill="#000000" transform="translate(0,0)"/>
<path d="" fill="#000000" transform="translate(0,0)"/>
<path d="" fill="#000000" transform="translate(0,0)"/>
<path d="" fill="#000000" transform="translate(0,0)"/>
<path d="" fill="#000000" transform="translate(0,0)"/>
<path d="" fill="#000000" transform="translate(0,0)"/>
<path d="" fill="#000000" transform="translate(0,0)"/>
<path d="" fill="#000000" transform="translate(0,0)"/>
<path d="" fill="#000000" transform="translate(0,0)"/>
<path d="" fill="#000000" transform="translate(0,0)"/>
<path d="" fill="#000000" transform="translate(0,0)"/>
<path d="" fill="#000000" transform="translate(0,0)"/>
<path d="" fill="#000000" transform="translate(0,0)"/>
<path d="" fill="#000000" transform="translate(0,0)"/>
<path d="" fill="#000000" transform="translate(0,0)"/>
<path d="" fill="#000000" transform="translate(0,0)"/>
<path d="" fill="#000000" transform="translate(0,0)"/>
<path d="" fill="#000000" transform="translate(0,0)"/>
<path d="" fill="#000000" transform="translate(0,0)"/>
<path d="" fill="#000000" transform="translate(0,0)"/>
<path d="" fill="#000000" transform="translate(0,0)"/>
<path d="" fill="#000000" transform="translate(0,0)"/>
<path d="" fill="#000000" transform="translate(0,0)"/>
<path d="" fill="#000000" transform="translate(0,0)"/>
<path d="" fill="#000000" transform="translate(0,0)"/>
<path d="" fill="#000000" transform="translate(0,0)"/>
<path d="" fill="#000000" transform="translate(0,0)"/>
<path d="" fill="#000000" transform="translate(0,0)"/>
<path d="" fill="#000000" transform="translate(0,0)"/>
<path d="" fill="#000000" transform="translate(0,0)"/>
<path d="" fill="#000000" transform="translate(0,0)"/>
<path d="" fill="#000000" transform="translate(0,0)"/>
<path d="" fill="#000000" transform="translate(0,0)"/>
<path d="" fill="#000000" transform="translate(0,0)"/>
<path d="" fill="#000000" transform="translate(0,0)"/>
<path d="" fill="#000000" transform="translate(0,0)"/>
<path d="" fill="#000000" transform="translate(0,0)"/>
<path d="" fill="#000000" transform="translate(0,0)"/>
<path d="" fill="#000000" transform="translate(0,0)"/>
<path d="" fill="#000000" transform="translate(0,0)"/>
<path d="" fill="#000000" transform="translate(0,0)"/>
<path d="" fill="#000000" transform="translate(0,0)"/>
<path d="" fill="#000000" transform="translate(0,0)"/>
<path d="" fill="#000000" transform="translate(0,0)"/>
<path d="" fill="#000000" transform="translate(0,0)"/>
</svg>
